# xmcd CD database file
#
# Track frame offsets:
#	150
#	13999
#	29950
#	40025
#	54182
#	69055
#	90762
#	105634
#	121007
#	140824
#	154662
#	168845
#	181167
#	193240
#
# Disc length: 2759 seconds
#
# Revision: 1
# Processed by: cddbd v1.5.1PL0 Copyright (c) Steve Scherf et al.
# Submitted via: CDex 1.51
#
DISCID=ae0ac50e
DTITLE=Various Artist - JAZZ SWING★IT DON'T MEAN A THING
DYEAR=1991
DGENRE=Jazz
TTITLE0=デューク・エリントン楽団 - スウィングしなけりゃ意味がない
TTITLE1=グレン・ミラー楽団 - イン・ザ・ムード
TTITLE2=ベニー・グッドマン楽団 - レッツ・ダンス
TTITLE3=コールマン・ホーキンス楽団 - 身も心も
TTITLE4=アーティ・ショウ楽団 - ビギン・ザ・ビギン
TTITLE5=バニー・ベリガン楽団 - 言い出しかねて
TTITLE6=ライオネル・ハンプトン楽団 - 表通りで
TTITLE7=メトロノーム・オールスターズ - ワン・オクロック・ジャンプ
TTITLE8=ルイ・アームストロング楽団 - 聖者の行進
TTITLE9=トニー・バスター - フレネシー
TTITLE10=ジミー・シドニー楽団 - セントルイス・ブルース
TTITLE11=デューク・エリントン楽団 - A列車で行こう
TTITLE12=グレン・ミラー楽団 - ユーモレスク
TTITLE13=ベニー・グッドマン楽団 - その手はないよ
EXTD=YEAR: 1991
EXTT0=
EXTT1=
EXTT2=
EXTT3=
EXTT4=
EXTT5=
EXTT6=
EXTT7=
EXTT8=
EXTT9=
EXTT10=
EXTT11=
EXTT12=
EXTT13=
PLAYORDER=
